# xmcd
#
# Track frame offsets:
#	150
#	10927
#	22530
#	33627
#	45542
#	61407
#	80805
#	99370
#	116302
#	128772
#	141027
#	154100
#	164617
#	180212
#
# Disc length: 2579
#
# Revision: 1
# Processed by: cddbd v1.5.1PL0 Copyright (c) Steve Scherf et al.
# Submitted via: dBpowerAMP V4.0
# Normalized: r0:TDELIM( - )
#
DISCID=a40a110e
DTITLE=Various Artist - Paradoxx Music Country Collection
DYEAR=1900
DGENRE=country
TTITLE0=John Williams - Midnight Cinderela
TTITLE1=Gene Fireball - On The Road Again
TTITLE2=Richard Gary - Chattahoochee
TTITLE3=Santoche Whight - Wild One
TTITLE4=Mike Gapinski - You Can Do Magic
TTITLE5=Doug Wayne - Just The Way You Are
TTITLE6=Brendon Johnson - Neon Moon
TTITLE7=Lyvia Gell - One Way Ticket
TTITLE8=Steve Sikes - Hurt So Good
TTITLE9=Brant McDuck - Summer´s Coming
TTITLE10=Steve Hagard - One Used Wedding Ring
TTITLE11=Luca Trail - The Boy With The Thorn
TTITLE12=William Brandel - Giving Water To A Drowning Man
TTITLE13=Emily Svengard - Right Plan Wrong Man
EXTD=
EXTT0=
EXTT1=
EXTT2=
EXTT3=
EXTT4=
EXTT5=
EXTT6=
EXTT7=
EXTT8=
EXTT9=
EXTT10=
EXTT11=
EXTT12=
EXTT13=
PLAYORDER=
